<svg xmlns="http://www.w3.org/2000/svg"  width="710" height="659" viewBox="0 0 710 659" version="1.1"><path d="M 81 1.950 C 64.526 3.989, 51.492 12.959, 44.767 26.889 C 40.811 35.081, 39.903 45.349, 42.447 53.127 C 44.077 58.112, 50.970 69.651, 55.277 74.603 C 56.397 75.892, 61.553 83.146, 66.735 90.723 C 71.916 98.300, 78.818 108.325, 82.073 113 C 85.328 117.675, 91.870 127.125, 96.610 134 C 101.351 140.875, 109.319 152.307, 114.317 159.404 C 119.315 166.501, 124.101 173.595, 124.952 175.168 C 126.687 178.374, 133.425 188.226, 153.902 217.500 C 161.596 228.500, 174.437 247.175, 182.438 259 C 190.438 270.825, 203.039 289.275, 210.439 300 C 223.193 318.484, 229.425 327.742, 243.088 348.500 C 246.346 353.450, 252.879 363.117, 257.606 369.981 C 262.333 376.846, 267.348 384.721, 268.751 387.481 C 274.517 398.829, 274.356 396.505, 274.758 474.500 C 275.175 555.458, 274.745 564.540, 269.902 577.098 C 266.846 585.022, 260.884 595.057, 256.085 600.353 C 253.092 603.657, 242.879 610.525, 235.154 614.429 C 223.252 620.444, 217.972 621.117, 177 621.839 L 139.500 622.500 135.101 625.500 C 129.607 629.247, 127 634.005, 127 640.284 C 127 648.269, 130.982 653.650, 139.028 656.537 C 143.094 657.995, 158.224 658.078, 305.500 657.443 C 436.732 656.878, 467.994 656.494, 470.102 655.424 C 474.112 653.387, 478.660 647.624, 479.409 643.632 C 480.859 635.906, 476.006 627.603, 467.752 623.687 C 464.676 622.227, 460.362 622, 435.705 622 C 401.950 622, 389.862 620.961, 379.039 617.132 C 367.996 613.224, 360.802 608.656, 352.336 600.177 C 346.876 594.708, 344.011 590.784, 341.022 584.677 C 333.202 568.700, 333.609 573.894, 333.240 485.328 C 332.920 408.388, 332.968 405.925, 334.951 397.957 C 337.313 388.469, 339.856 383.723, 351.029 367.961 C 355.497 361.657, 363.392 350.200, 368.573 342.500 C 373.755 334.800, 380.272 325.350, 383.056 321.500 C 385.839 317.650, 388.503 313.600, 388.975 312.500 C 389.447 311.400, 393.090 305.775, 397.071 300 C 401.052 294.225, 408.605 283.200, 413.855 275.500 C 419.105 267.800, 425.147 259.025, 427.280 256 C 429.414 252.975, 434.134 246, 437.768 240.500 C 449.914 222.122, 456.980 211.651, 471.510 190.500 C 484.879 171.040, 489.031 164.871, 508.187 136 C 512.018 130.225, 520.856 117.031, 527.827 106.681 C 546.193 79.408, 549 74.842, 549 72.238 C 549 68.079, 546.276 64.327, 542.018 62.624 C 538.315 61.142, 518.225 61, 312.516 61 L 87.073 61 82.045 54.958 C 76.651 48.477, 75.410 45.489, 76.427 41.434 C 77.887 35.619, 63.035 35.939, 316.257 36.280 C 568.893 36.621, 547.980 36.150, 568.500 41.970 C 598.219 50.398, 624.352 74.128, 631.708 99.363 L 634 107.227 634 328.565 C 634 560.374, 634.162 550.535, 630.129 563.758 C 626.790 574.704, 612.537 590.013, 599.969 596.151 C 589.907 601.065, 582.641 602.353, 568.279 601.770 C 555.401 601.247, 549.478 599.561, 539.055 593.453 C 527.424 586.636, 515.991 572.212, 510.764 557.760 L 508.500 551.500 508 381.823 L 507.500 212.146 505.401 209.323 C 503.864 207.257, 502.289 206.415, 499.523 206.182 C 496.097 205.894, 495.267 206.360, 490.622 211.182 C 483.649 218.422, 475.552 234.819, 474.075 244.692 C 472.749 253.562, 472.656 519.825, 473.972 543 C 474.999 561.097, 476.596 568.028, 482.725 581 C 488.287 592.771, 492.224 598.084, 504.305 610.126 C 512.892 618.685, 514.982 620.182, 526.150 625.767 C 533.932 629.658, 541.644 632.689, 547 633.963 C 571.764 639.850, 599.874 636.223, 620.474 624.483 C 624.801 622.017, 628.696 620, 629.130 620 C 630.240 620, 648.153 601.431, 652.299 595.983 C 656.187 590.873, 661.054 581.603, 664.043 573.614 C 669.095 560.111, 668.964 566.613, 668.983 329.192 C 668.994 178.260, 668.663 105.596, 667.939 100.692 C 665.437 83.736, 658.932 69.840, 645.846 53.500 C 633.883 38.563, 633.367 38.106, 614.098 25.353 C 598.037 14.723, 584.274 9.051, 563 4.295 L 550.500 1.500 318.500 1.385 C 190.900 1.321, 84.025 1.576, 81 1.950 M 74.734 4.088 C 67.451 5.804, 58.234 11.636, 51.341 18.891 C 45.388 25.156, 41.235 38.263, 42.477 46.869 C 43.449 53.610, 47.183 61.160, 54.364 70.908 C 62.897 82.492, 79.502 106.245, 96.021 130.500 C 103.513 141.500, 115.202 158.600, 121.996 168.500 C 128.791 178.400, 140.048 194.825, 147.011 205 C 153.975 215.175, 164.662 230.700, 170.760 239.500 C 185.160 260.281, 190.030 267.419, 232.495 330 C 252.089 358.875, 269.447 385.200, 271.068 388.500 C 277.078 400.737, 277.127 401.581, 276.738 485.906 C 276.346 570.985, 276.582 567.842, 269.461 582.648 C 262.584 596.946, 251.413 608.072, 236.500 615.477 C 221.481 622.935, 219.487 623.213, 177.405 623.728 C 141.682 624.166, 140.170 624.262, 136.499 626.341 C 130.543 629.715, 128.500 633.178, 128.500 639.901 C 128.500 644.609, 128.990 646.298, 131.194 649.187 C 136.826 656.572, 122.401 656, 303 656 C 481.454 656, 468.308 656.463, 474.543 649.955 C 476.823 647.576, 477.450 645.885, 477.775 641.251 C 478.110 636.453, 477.789 634.935, 475.839 632.092 C 474.552 630.218, 472.231 627.743, 470.679 626.592 C 467.973 624.585, 466.351 624.476, 430.679 623.908 C 397.115 623.374, 392.752 623.112, 385.804 621.213 C 364.444 615.375, 347.607 601.850, 338.852 583.500 C 331.553 568.201, 331.704 570.104, 331.281 488.026 C 330.899 413.886, 331.264 403.182, 334.499 393.654 C 336.359 388.175, 342.748 377.331, 351.379 365 C 354.652 360.325, 363.423 347.500, 370.871 336.500 C 378.318 325.500, 390.375 307.725, 397.664 297 C 404.953 286.275, 416.968 268.500, 424.364 257.500 C 431.761 246.500, 444.572 227.600, 452.833 215.500 C 478.195 178.352, 542.652 81.736, 544.888 77.515 C 547.739 72.135, 547.547 69.393, 544.077 65.923 L 541.154 63 314.580 63 L 88.006 63 84.046 59.422 C 78.790 54.674, 74 47.303, 74 43.963 C 74 40.630, 77.025 36.646, 80.716 35.118 C 82.797 34.257, 142.360 34.033, 316.500 34.233 L 549.500 34.500 559.037 37.138 C 591.524 46.126, 616.208 63.844, 628.300 86.857 C 636.598 102.649, 635.905 80.873, 636.012 329 C 636.107 549.229, 636.096 550.541, 634.064 557.702 C 631.054 568.307, 627.400 574.320, 617.537 584.904 C 610.766 592.169, 602.331 597.482, 592.578 600.624 C 577.390 605.518, 555.597 603.902, 541.677 596.850 C 528.192 590.018, 515.932 575.648, 509.761 559.439 L 507.500 553.500 507 383.500 C 506.614 252.152, 506.222 213.015, 505.278 211.368 C 503.170 207.690, 498.068 206.863, 494.201 209.572 C 488.782 213.367, 481.287 226.041, 476.872 238.873 C 475.074 244.097, 475.001 250.399, 475.013 397.407 C 475.026 543.904, 475.108 550.897, 476.927 559.710 C 482.797 588.156, 503.643 614.187, 530.483 626.588 C 555.976 638.366, 588.660 638.307, 613.618 626.437 C 639.745 614.011, 658.431 591.601, 665.075 564.726 C 667.092 556.570, 667.108 554.574, 666.999 329.596 C 666.932 189.768, 666.523 100.737, 665.933 97.596 C 661.780 75.494, 647.032 52.677, 625 34.270 C 608.380 20.384, 579.594 8.132, 554 4.052 C 545.818 2.747, 80.277 2.782, 74.734 4.088 M 563.500 90.871 C 558.909 92.067, 556.651 93.537, 552.720 97.888 C 546.543 104.726, 546.974 112.787, 553.869 119.363 C 557.693 123.010, 561.150 124, 570.065 124 L 578 124 578 136.500 L 578 149 560.250 149.004 C 540.069 149.008, 538.193 149.565, 533.535 156.944 C 528.327 165.194, 531.864 176.856, 540.718 180.629 C 543.022 181.611, 548.771 182, 560.968 182 L 578 182 578 195.500 L 578 209 568.250 209.027 C 562.888 209.042, 554.281 209.462, 549.124 209.961 C 540.855 210.761, 539.397 211.201, 536.784 213.684 C 528.210 221.833, 529.137 233.132, 538.922 239.726 C 542.118 241.880, 543.235 242, 560.148 242 L 578 242 578 256.439 L 578 270.879 559.012 271.189 L 540.025 271.500 535.875 275.652 C 532.392 279.137, 531.649 280.597, 531.251 284.736 C 530.706 290.410, 532.168 293.926, 536.974 298.500 L 540.126 301.500 559.063 301.811 L 578 302.121 578 316.500 L 578 330.879 558.886 331.189 L 539.772 331.500 535.281 336.463 C 530.892 341.313, 530.800 341.554, 531.202 347.115 C 531.512 351.408, 532.307 353.713, 534.439 356.508 C 538.876 362.327, 541.629 363, 560.968 363 L 578 363 578 376.921 L 578 390.841 559.570 391.171 C 542.728 391.472, 540.898 391.680, 538.320 393.592 C 529.161 400.386, 528.672 410.684, 537.131 418.689 C 538.984 420.442, 541.767 422.355, 543.315 422.939 C 544.868 423.524, 553.240 424, 561.989 424 L 577.847 424 578.206 443.250 C 578.607 464.775, 578.494 464.367, 586.509 473.460 C 594.906 482.986, 605.803 485.746, 612.342 480.005 C 617.216 475.725, 618.510 472.083, 617.120 466.561 C 616.315 463.364, 616 413.040, 616 287.500 C 616 167.955, 615.666 111.563, 614.941 108.693 C 613.315 102.251, 607.698 95.242, 602.198 92.791 C 598.215 91.016, 595.140 90.651, 582 90.393 C 573.475 90.226, 565.150 90.441, 563.500 90.871 M 561.352 93.092 C 557.431 94.228, 552.424 99.806, 551.135 104.473 C 549.160 111.628, 554.071 119.964, 561.089 121.368 C 562.828 121.716, 567.794 122, 572.125 122 L 580 122 580 135.893 C 580 146.988, 579.713 149.896, 578.576 150.332 C 577.793 150.633, 569.464 150.897, 560.066 150.919 C 541.621 150.963, 539.086 151.532, 535.171 156.509 C 530.493 162.457, 532.081 172.781, 538.364 177.263 C 541.275 179.340, 542.863 179.536, 560.500 180 L 579.500 180.500 579.500 196 L 579.500 211.500 560 212 C 541.967 212.462, 540.269 212.665, 537.425 214.693 C 531.733 218.754, 530.887 228.141, 535.608 234.858 C 539.127 239.866, 543.954 240.954, 562.750 240.978 L 580 241 580 256.500 L 580 272 561.750 272.002 C 540.788 272.003, 538.126 272.728, 534.226 279.500 C 531.425 284.364, 531.742 289.540, 535.145 294.506 C 538.898 299.984, 540.666 300.411, 561.250 300.801 L 580 301.156 580 316.578 L 580 332 561.968 332 C 548.537 332, 543.057 332.367, 540.490 333.440 C 536.729 335.011, 533.345 339.706, 532.411 344.648 C 531.592 348.978, 534.889 356.072, 539.124 359.092 C 542.355 361.396, 543.307 361.514, 561.250 361.828 L 580 362.156 580 376.971 C 580 389.558, 579.762 391.877, 578.418 392.393 C 577.548 392.727, 569.201 393, 559.869 393 C 546.818 393, 542.238 393.343, 540.029 394.485 C 530.345 399.493, 530.348 413.774, 540.035 419.465 C 543.421 421.454, 548.801 421.805, 578.750 421.992 C 579.705 421.998, 580.001 426.424, 580.006 440.750 C 580.009 451.063, 580.457 461.104, 581.002 463.065 C 583.258 471.187, 595.546 480.976, 603.500 480.987 C 607.981 480.993, 613.278 478.218, 615.028 474.947 C 615.764 473.573, 615.923 471.097, 615.465 468.143 C 615.069 465.590, 614.465 383.101, 614.123 284.836 L 613.500 106.172 610.494 101.836 C 608.525 98.996, 605.616 96.551, 602.064 94.750 C 596.788 92.074, 596.207 92.002, 580.571 92.090 C 571.732 92.140, 563.083 92.591, 561.352 93.092 M 110 93.839 C 110 94.701, 152.885 158.498, 179.534 197.281 C 187.765 209.260, 198.577 225.010, 203.560 232.281 C 208.543 239.551, 220.663 257.200, 230.495 271.500 C 240.326 285.800, 255.280 307.625, 263.727 320 C 291.743 361.045, 302.514 376.338, 303.681 376.727 C 304.316 376.939, 308.379 371.799, 312.710 365.306 C 317.041 358.813, 328.642 341.800, 338.490 327.500 C 348.338 313.200, 360.655 295.200, 365.861 287.500 C 377.707 269.979, 420.593 206.893, 427.043 197.500 C 441.983 175.743, 495.005 96.228, 495.559 94.750 C 496.181 93.087, 486.601 93, 303.107 93 C 196.898 93, 110 93.377, 110 93.839 M 114.001 97.504 C 114.525 98.881, 117.776 104.110, 121.227 109.125 C 124.677 114.139, 129.549 121.225, 132.054 124.871 C 139.346 135.485, 159.208 164.788, 165.015 173.500 C 174.405 187.589, 176.130 190.125, 190.853 211.500 C 198.809 223.050, 207.585 235.650, 210.357 239.500 C 220.399 253.451, 226 261.831, 226 262.905 C 226 263.507, 226.378 264, 226.839 264 C 227.301 264, 228.145 265.012, 228.714 266.250 C 229.283 267.488, 234.909 275.925, 241.214 285 C 266.763 321.768, 270.486 327.175, 281.501 343.500 C 300.262 371.305, 301.889 373.500, 303.744 373.500 C 305.407 373.500, 316.720 357.800, 327.853 340.042 C 330.248 336.223, 332.558 332.963, 332.988 332.799 C 333.417 332.634, 340.256 322.825, 348.186 311 C 362.440 289.744, 378.016 266.956, 390.215 249.513 C 393.672 244.570, 398.265 237.595, 400.423 234.013 C 402.580 230.431, 407.563 223, 411.495 217.500 C 415.427 212, 424.394 198.983, 431.423 188.574 C 438.451 178.165, 445.537 167.815, 447.168 165.574 C 448.800 163.333, 454.267 155.164, 459.317 147.421 C 464.368 139.677, 474.012 125.112, 480.750 115.055 C 487.487 104.998, 493 96.371, 493 95.885 C 493 95.375, 412.470 95, 303.025 95 L 113.050 95 114.001 97.504 M 151.529 117.156 C 146.535 121.084, 147.833 123.843, 166.886 149.800 C 170.399 154.585, 177.883 165.475, 183.518 174 C 189.153 182.525, 194.490 190.400, 195.379 191.500 C 196.268 192.600, 198.932 196.425, 201.298 200 C 205.200 205.893, 213.906 218.485, 227.225 237.500 C 234.528 247.926, 241.307 257.804, 243 260.487 C 243.825 261.795, 247.313 266.684, 250.750 271.351 C 254.188 276.019, 257 280.112, 257 280.447 C 257 281.123, 274.554 306.874, 281.846 316.895 C 284.406 320.412, 288.221 324.680, 290.323 326.379 C 293.673 329.086, 295.062 329.515, 301.536 329.842 C 307.525 330.144, 309.749 329.816, 313.273 328.110 C 320.318 324.699, 318.572 326.985, 356.762 271.196 C 361.018 264.978, 364.950 259.141, 365.500 258.224 C 368.442 253.319, 376.051 242.184, 377.886 240.097 C 379.049 238.775, 380 237.345, 380 236.918 C 380 236.492, 380.563 235.547, 381.250 234.818 C 383.827 232.088, 409.287 193.557, 410.615 190.378 C 412.106 186.811, 412.437 180.235, 411.222 178.325 C 410.811 177.679, 407.560 175.654, 403.998 173.825 C 394.404 168.900, 390.943 162.535, 392.438 152.567 C 394.221 140.675, 405.485 134.369, 418.160 138.166 C 423.206 139.678, 429.646 146.596, 430.564 151.490 C 431.323 155.535, 433.228 156.885, 435.508 154.993 C 436.323 154.317, 439.268 150.104, 442.051 145.632 C 444.835 141.159, 449.325 134.350, 452.030 130.500 C 454.734 126.650, 456.959 122.520, 456.974 121.323 C 456.988 120.125, 455.814 118.212, 454.365 117.073 L 451.730 115 303 115 L 154.270 115 151.529 117.156 M 152.203 118.197 C 149.610 120.790, 151.026 124.726, 158.280 135.094 C 167.493 148.262, 174.592 158.506, 188.014 178 C 193.884 186.525, 201.483 197.550, 204.901 202.500 C 214.530 216.445, 242.683 257.400, 257.489 279 C 284.048 317.747, 286.549 321.242, 289.737 324.057 C 293.773 327.622, 300.073 329.384, 306.196 328.661 C 316.086 327.494, 317.738 325.731, 341.009 291.500 C 363.143 258.941, 369.088 250.245, 382.026 231.500 C 406.456 196.105, 410.288 189.377, 409.806 182.729 C 409.516 178.716, 409.227 178.363, 404.123 175.790 C 397.397 172.400, 395.329 170.538, 392.698 165.500 C 390.133 160.588, 389.895 151.831, 392.208 147.479 C 396.227 139.921, 402.697 136, 411.152 136 C 420.678 136, 429.250 142.249, 432.308 151.423 L 433.640 155.421 444.871 138.604 C 455.359 122.900, 456.008 121.645, 454.679 119.643 L 453.256 117.500 303.331 117.247 C 187.550 117.051, 153.132 117.268, 152.203 118.197 M 341.852 183.963 C 325.116 193.047, 324.916 216.539, 341.500 225.310 C 347.124 228.285, 356.905 228.264, 363.018 225.263 C 368.280 222.681, 373.581 216.270, 375.091 210.661 C 377.504 201.702, 372.989 190.587, 364.800 185.325 C 359.010 181.605, 347.461 180.919, 341.852 183.963 M 348.500 183.491 C 347.950 183.675, 346.271 184.096, 344.768 184.427 C 343.266 184.758, 340.383 186.481, 338.361 188.256 C 326.184 198.948, 329.689 220.300, 344.395 225.005 C 350.679 227.015, 360.422 225.779, 365.369 222.342 C 376.569 214.563, 377.103 197.001, 366.408 188.185 C 361.748 184.344, 352.898 182.024, 348.500 183.491 M 254.604 197.028 C 246.290 199.546, 242.302 209.882, 246.508 218.015 C 252.013 228.661, 268.278 227.589, 272.621 216.293 C 276.787 205.459, 265.747 193.654, 254.604 197.028 M 250.533 201.533 C 247.428 204.639, 247 205.674, 247 210.083 C 247 215.866, 248.824 219.999, 252.414 222.352 C 257.353 225.588, 267.493 223.684, 269.970 219.055 C 271.476 216.241, 271.227 207.340, 269.551 204.099 C 267.467 200.069, 263.741 198, 258.569 198 C 254.749 198, 253.531 198.535, 250.533 201.533 M 531.898 454.258 C 529.934 455.563, 527.507 458.593, 526.146 461.439 C 524.029 465.869, 523.914 466.771, 525.010 470.427 C 525.709 472.760, 528.039 476.302, 530.482 478.745 C 534.093 482.357, 535.352 483, 538.803 483 C 548.646 483, 556 476.002, 556 466.635 C 556 462.083, 555.636 461.350, 551.143 456.857 C 546.512 452.226, 546.030 452, 540.791 452 C 536.757 452, 534.392 452.600, 531.898 454.258 M 532.310 456.077 C 524.952 460.790, 524.569 471.780, 531.549 477.909 C 534.421 480.431, 535.938 480.999, 539.785 480.996 C 547.713 480.990, 554.987 474.637, 554.996 467.710 C 555.002 463.578, 551.393 457.255, 548.040 455.521 C 543.804 453.330, 536.177 453.600, 532.310 456.077 M 557.618 489.112 C 537.877 493.747, 520.419 518.161, 522.316 538.480 C 523.559 551.789, 529.589 563.701, 539.931 573.276 C 546.501 579.359, 550.229 581.360, 560.072 584.087 C 570.216 586.898, 575.959 586.540, 589 582.285 C 595.274 580.237, 602.107 575.641, 607.588 569.781 C 632.622 543.019, 620.529 498.682, 585.664 489.399 C 579.921 487.870, 563.620 487.703, 557.618 489.112 M 555.635 491.403 C 547.278 494.427, 542.262 497.803, 536.341 504.388 C 519.865 522.714, 520.525 551.111, 537.850 569.280 C 544.550 576.306, 551.521 580.440, 560.068 582.454 C 575.276 586.039, 588.188 583.312, 601.910 573.616 C 607.139 569.922, 615.368 557.867, 617.452 550.850 C 624.456 527.265, 614.183 503.637, 592.433 493.308 C 585.173 489.860, 583.925 489.593, 573.579 489.267 C 563.766 488.959, 561.716 489.203, 555.635 491.403" stroke="none" fill="#6384ff" fill-rule="evenodd"/><path d="M 74.734 4.088 C 67.451 5.804, 58.234 11.636, 51.341 18.891 C 45.388 25.156, 41.235 38.263, 42.477 46.869 C 43.449 53.610, 47.183 61.160, 54.364 70.908 C 62.897 82.492, 79.502 106.245, 96.021 130.500 C 103.513 141.500, 115.202 158.600, 121.996 168.500 C 128.791 178.400, 140.048 194.825, 147.011 205 C 153.975 215.175, 164.662 230.700, 170.760 239.500 C 185.160 260.281, 190.030 267.419, 232.495 330 C 252.089 358.875, 269.447 385.200, 271.068 388.500 C 277.078 400.737, 277.127 401.581, 276.738 485.906 C 276.346 570.985, 276.582 567.842, 269.461 582.648 C 262.584 596.946, 251.413 608.072, 236.500 615.477 C 221.481 622.935, 219.487 623.213, 177.405 623.728 C 141.682 624.166, 140.170 624.262, 136.499 626.341 C 130.543 629.715, 128.500 633.178, 128.500 639.901 C 128.500 644.609, 128.990 646.298, 131.194 649.187 C 136.826 656.572, 122.401 656, 303 656 C 481.454 656, 468.308 656.463, 474.543 649.955 C 476.823 647.576, 477.450 645.885, 477.775 641.251 C 478.110 636.453, 477.789 634.935, 475.839 632.092 C 474.552 630.218, 472.231 627.743, 470.679 626.592 C 467.973 624.585, 466.351 624.476, 430.679 623.908 C 397.115 623.374, 392.752 623.112, 385.804 621.213 C 364.444 615.375, 347.607 601.850, 338.852 583.500 C 331.553 568.201, 331.704 570.104, 331.281 488.026 C 330.899 413.886, 331.264 403.182, 334.499 393.654 C 336.359 388.175, 342.748 377.331, 351.379 365 C 354.652 360.325, 363.423 347.500, 370.871 336.500 C 378.318 325.500, 390.375 307.725, 397.664 297 C 404.953 286.275, 416.968 268.500, 424.364 257.500 C 431.761 246.500, 444.572 227.600, 452.833 215.500 C 478.195 178.352, 542.652 81.736, 544.888 77.515 C 547.739 72.135, 547.547 69.393, 544.077 65.923 L 541.154 63 314.580 63 L 88.006 63 84.046 59.422 C 78.790 54.674, 74 47.303, 74 43.963 C 74 40.630, 77.025 36.646, 80.716 35.118 C 82.797 34.257, 142.360 34.033, 316.500 34.233 L 549.500 34.500 559.037 37.138 C 591.524 46.126, 616.208 63.844, 628.300 86.857 C 636.598 102.649, 635.905 80.873, 636.012 329 C 636.107 549.229, 636.096 550.541, 634.064 557.702 C 631.054 568.307, 627.400 574.320, 617.537 584.904 C 610.766 592.169, 602.331 597.482, 592.578 600.624 C 577.390 605.518, 555.597 603.902, 541.677 596.850 C 528.192 590.018, 515.932 575.648, 509.761 559.439 L 507.500 553.500 507 383.500 C 506.614 252.152, 506.222 213.015, 505.278 211.368 C 503.170 207.690, 498.068 206.863, 494.201 209.572 C 488.782 213.367, 481.287 226.041, 476.872 238.873 C 475.074 244.097, 475.001 250.399, 475.013 397.407 C 475.026 543.904, 475.108 550.897, 476.927 559.710 C 482.797 588.156, 503.643 614.187, 530.483 626.588 C 555.976 638.366, 588.660 638.307, 613.618 626.437 C 639.745 614.011, 658.431 591.601, 665.075 564.726 C 667.092 556.570, 667.108 554.574, 666.999 329.596 C 666.932 189.768, 666.523 100.737, 665.933 97.596 C 661.780 75.494, 647.032 52.677, 625 34.270 C 608.380 20.384, 579.594 8.132, 554 4.052 C 545.818 2.747, 80.277 2.782, 74.734 4.088 M 561.352 93.092 C 557.431 94.228, 552.424 99.806, 551.135 104.473 C 549.160 111.628, 554.071 119.964, 561.089 121.368 C 562.828 121.716, 567.794 122, 572.125 122 L 580 122 580 135.893 C 580 146.988, 579.713 149.896, 578.576 150.332 C 577.793 150.633, 569.464 150.897, 560.066 150.919 C 541.621 150.963, 539.086 151.532, 535.171 156.509 C 530.493 162.457, 532.081 172.781, 538.364 177.263 C 541.275 179.340, 542.863 179.536, 560.500 180 L 579.500 180.500 579.500 196 L 579.500 211.500 560 212 C 541.967 212.462, 540.269 212.665, 537.425 214.693 C 531.733 218.754, 530.887 228.141, 535.608 234.858 C 539.127 239.866, 543.954 240.954, 562.750 240.978 L 580 241 580 256.500 L 580 272 561.750 272.002 C 540.788 272.003, 538.126 272.728, 534.226 279.500 C 531.425 284.364, 531.742 289.540, 535.145 294.506 C 538.898 299.984, 540.666 300.411, 561.250 300.801 L 580 301.156 580 316.578 L 580 332 561.968 332 C 548.537 332, 543.057 332.367, 540.490 333.440 C 536.729 335.011, 533.345 339.706, 532.411 344.648 C 531.592 348.978, 534.889 356.072, 539.124 359.092 C 542.355 361.396, 543.307 361.514, 561.250 361.828 L 580 362.156 580 376.971 C 580 389.558, 579.762 391.877, 578.418 392.393 C 577.548 392.727, 569.201 393, 559.869 393 C 546.818 393, 542.238 393.343, 540.029 394.485 C 530.345 399.493, 530.348 413.774, 540.035 419.465 C 543.421 421.454, 548.801 421.805, 578.750 421.992 C 579.705 421.998, 580.001 426.424, 580.006 440.750 C 580.009 451.063, 580.457 461.104, 581.002 463.065 C 583.258 471.187, 595.546 480.976, 603.500 480.987 C 607.981 480.993, 613.278 478.218, 615.028 474.947 C 615.764 473.573, 615.923 471.097, 615.465 468.143 C 615.069 465.590, 614.465 383.101, 614.123 284.836 L 613.500 106.172 610.494 101.836 C 608.525 98.996, 605.616 96.551, 602.064 94.750 C 596.788 92.074, 596.207 92.002, 580.571 92.090 C 571.732 92.140, 563.083 92.591, 561.352 93.092 M 110 93.839 C 110 94.701, 152.885 158.498, 179.534 197.281 C 187.765 209.260, 198.577 225.010, 203.560 232.281 C 208.543 239.551, 220.663 257.200, 230.495 271.500 C 240.326 285.800, 255.280 307.625, 263.727 320 C 291.743 361.045, 302.514 376.338, 303.681 376.727 C 304.316 376.939, 308.379 371.799, 312.710 365.306 C 317.041 358.813, 328.642 341.800, 338.490 327.500 C 348.338 313.200, 360.655 295.200, 365.861 287.500 C 377.707 269.979, 420.593 206.893, 427.043 197.500 C 441.983 175.743, 495.005 96.228, 495.559 94.750 C 496.181 93.087, 486.601 93, 303.107 93 C 196.898 93, 110 93.377, 110 93.839 M 152.203 118.197 C 149.610 120.790, 151.026 124.726, 158.280 135.094 C 167.493 148.262, 174.592 158.506, 188.014 178 C 193.884 186.525, 201.483 197.550, 204.901 202.500 C 214.530 216.445, 242.683 257.400, 257.489 279 C 284.048 317.747, 286.549 321.242, 289.737 324.057 C 293.773 327.622, 300.073 329.384, 306.196 328.661 C 316.086 327.494, 317.738 325.731, 341.009 291.500 C 363.143 258.941, 369.088 250.245, 382.026 231.500 C 406.456 196.105, 410.288 189.377, 409.806 182.729 C 409.516 178.716, 409.227 178.363, 404.123 175.790 C 397.397 172.400, 395.329 170.538, 392.698 165.500 C 390.133 160.588, 389.895 151.831, 392.208 147.479 C 396.227 139.921, 402.697 136, 411.152 136 C 420.678 136, 429.250 142.249, 432.308 151.423 L 433.640 155.421 444.871 138.604 C 455.359 122.900, 456.008 121.645, 454.679 119.643 L 453.256 117.500 303.331 117.247 C 187.550 117.051, 153.132 117.268, 152.203 118.197 M 341.852 183.963 C 325.116 193.047, 324.916 216.539, 341.500 225.310 C 347.124 228.285, 356.905 228.264, 363.018 225.263 C 368.280 222.681, 373.581 216.270, 375.091 210.661 C 377.504 201.702, 372.989 190.587, 364.800 185.325 C 359.010 181.605, 347.461 180.919, 341.852 183.963 M 254.604 197.028 C 246.290 199.546, 242.302 209.882, 246.508 218.015 C 252.013 228.661, 268.278 227.589, 272.621 216.293 C 276.787 205.459, 265.747 193.654, 254.604 197.028 M 532.310 456.077 C 524.952 460.790, 524.569 471.780, 531.549 477.909 C 534.421 480.431, 535.938 480.999, 539.785 480.996 C 547.713 480.990, 554.987 474.637, 554.996 467.710 C 555.002 463.578, 551.393 457.255, 548.040 455.521 C 543.804 453.330, 536.177 453.600, 532.310 456.077 M 555.635 491.403 C 547.278 494.427, 542.262 497.803, 536.341 504.388 C 519.865 522.714, 520.525 551.111, 537.850 569.280 C 544.550 576.306, 551.521 580.440, 560.068 582.454 C 575.276 586.039, 588.188 583.312, 601.910 573.616 C 607.139 569.922, 615.368 557.867, 617.452 550.850 C 624.456 527.265, 614.183 503.637, 592.433 493.308 C 585.173 489.860, 583.925 489.593, 573.579 489.267 C 563.766 488.959, 561.716 489.203, 555.635 491.403" stroke="none" fill="#6384ff" fill-rule="evenodd"/></svg>